<?xml version="1.0" encoding="UTF-8"?>
<svg xmlns="http://www.w3.org/2000/svg" xmlns:xlink="http://www.w3.org/1999/xlink" width="1700.11pt" height="850.39pt" viewBox="0 0 1700.11 850.39" version="1.1">
<defs>
<clipPath id="clip1">
  <path d="M 0 0 L 1700.109375 0 L 1700.109375 850.390625 L 0 850.390625 Z M 0 0 "/>
</clipPath>
</defs>
<g id="surface1">
<g clip-path="url(#clip1)" clip-rule="nonzero">
<path style=" stroke:none;fill-rule:nonzero;fill:rgb(7.499695%,61.999512%,28.599548%);fill-opacity:1;" d="M 0 850.390625 L 1700.109375 850.390625 L 1700.109375 0 L 0 0 Z M 0 850.390625 "/>
</g>
<path style=" stroke:none;fill-rule:evenodd;fill:rgb(100%,100%,100%);fill-opacity:1;" d="M 494.351563 457.699219 L 484.035156 481.015625 C 484.035156 481.015625 508.886719 496.960938 537.394531 495.8125 C 565.898438 494.664063 594.101563 482.546875 593.4375 454.5625 C 592.773438 426.578125 573.671875 422.191406 551.742188 416.449219 C 529.8125 410.710938 518.960938 408.59375 519.011719 399.410156 C 519.058594 390.234375 530.132813 384.054688 541.878906 384.167969 C 560.269531 384.34375 578.195313 396.722656 578.195313 396.722656 L 588.507813 372.957031 C 588.507813 372.957031 573.269531 360.390625 543.222656 359.507813 C 513.171875 358.625 486.644531 375.707031 486.726563 401.652344 C 486.808594 427.605469 511.308594 436.960938 532.460938 441.109375 C 553.613281 445.261719 561.019531 450.171875 561.15625 457.699219 C 561.292969 465.230469 550.734375 471.0625 537.839844 470.703125 C 515.730469 470.09375 494.351563 457.699219 494.351563 457.699219 "/>
<path style=" stroke:none;fill-rule:evenodd;fill:rgb(100%,100%,100%);fill-opacity:1;" d="M 679.972656 447.386719 C 679.421875 464.335938 670.011719 471.617188 661.589844 472.050781 C 653.171875 472.480469 641.667969 468.941406 640.964844 448.285156 C 640.261719 427.628906 649.871094 421.691406 660.246094 421.382813 C 672.1875 421.027344 680.527344 430.441406 679.972656 447.386719 M 678.179688 410.621094 L 679.972656 408.828125 L 679.972656 399.859375 L 711.359375 399.859375 L 711.359375 493.121094 L 679.972656 493.121094 L 679.972656 481.910156 L 677.285156 480.566406 C 677.285156 480.566406 670.746094 494.652344 650.828125 494.019531 C 630.910156 493.382813 607.441406 479.71875 608.683594 448.285156 C 609.921875 416.851563 626.078125 396.042969 649.484375 396.722656 C 672.886719 397.398438 678.179688 410.621094 678.179688 410.621094 "/>
<path style=" stroke:none;fill-rule:evenodd;fill:rgb(100%,100%,100%);fill-opacity:1;" d="M 870.894531 447.386719 C 870.34375 464.335938 860.933594 471.617188 852.515625 472.050781 C 844.09375 472.480469 832.589844 468.941406 831.890625 448.285156 C 831.1875 427.628906 840.792969 421.691406 851.167969 421.382813 C 863.109375 421.027344 871.449219 430.441406 870.894531 447.386719 M 869.105469 410.621094 L 870.894531 408.828125 L 870.894531 399.859375 L 902.28125 399.859375 L 902.28125 493.121094 L 870.894531 493.121094 L 870.894531 481.910156 L 868.207031 480.566406 C 868.207031 480.566406 861.671875 494.652344 841.753906 494.019531 C 821.835938 493.382813 798.367188 479.71875 799.605469 448.285156 C 800.847656 416.851563 817.003906 396.042969 840.40625 396.722656 C 863.8125 397.398438 869.105469 410.621094 869.105469 410.621094 "/>
<path style=" stroke:none;fill-rule:evenodd;fill:rgb(100%,100%,100%);fill-opacity:1;" d="M 786.234375 399.410156 L 786.234375 423.175781 L 766.957031 423.175781 L 766.957031 493.121094 L 735.121094 493.121094 L 735.121094 393.136719 C 735.121094 393.136719 736.671875 356.230469 770.09375 355.921875 C 787.828125 355.753906 789.824219 358.609375 789.824219 358.609375 L 789.824219 382.375 C 789.824219 382.375 787.613281 381.425781 780.855469 381.476563 C 765.191406 381.601563 767.402344 399.859375 767.402344 399.859375 "/>
<path style=" stroke:none;fill-rule:evenodd;fill:rgb(100%,100%,100%);fill-opacity:1;" d="M 922.089844 399.410156 C 922.089844 399.410156 923.285156 406.902344 923.433594 417.347656 C 923.828125 444.164063 923.433594 491.777344 923.433594 491.777344 L 953.925781 491.777344 L 953.925781 445.59375 C 953.925781 445.59375 953 425.957031 974.550781 424.523438 C 981.273438 424.074219 991.585938 428.558594 991.585938 428.558594 L 991.585938 398.964844 C 991.585938 398.964844 987.554688 396.273438 975.445313 397.171875 C 964.566406 397.976563 953.925781 413.3125 953.925781 413.3125 L 951.683594 413.3125 L 951.683594 399.410156 "/>
<path style=" stroke:none;fill-rule:evenodd;fill:rgb(100%,100%,100%);fill-opacity:1;" d="M 1003.691406 492.671875 L 1035.972656 492.671875 L 1035.972656 399.410156 L 1003.691406 399.410156 Z M 1003.691406 492.671875 "/>
<path style=" stroke:none;fill-rule:evenodd;fill:rgb(100%,100%,100%);fill-opacity:1;" d="M 1002.800781 352.78125 L 1002.800781 381.027344 L 1035.53125 381.027344 L 1035.53125 353.230469 Z M 1002.800781 352.78125 "/>
<path style=" stroke:none;fill-rule:evenodd;fill:rgb(100%,100%,100%);fill-opacity:1;" d="M 1132.378906 429.007813 L 1140.890625 407.03125 C 1140.890625 407.03125 1131.929688 397.617188 1103.679688 397.171875 C 1075.429688 396.722656 1053.011719 414.65625 1053.011719 446.941406 C 1053.011719 479.222656 1075.429688 494.960938 1105.019531 494.46875 C 1131.929688 494.019531 1140.890625 483.703125 1140.890625 483.703125 L 1132.378906 463.078125 C 1132.378906 463.078125 1118.03125 472.496094 1107.269531 471.601563 C 1096.511719 470.703125 1083.949219 460.839844 1085.300781 445.59375 C 1086.640625 430.351563 1095.609375 420.484375 1109.511719 420.484375 C 1123.410156 420.484375 1132.378906 429.007813 1132.378906 429.007813 "/>
<path style=" stroke:none;fill-rule:evenodd;fill:rgb(100%,100%,100%);fill-opacity:1;" d="M 1252.539063 446.042969 C 1252.539063 475.636719 1231.019531 494.46875 1200.980469 494.914063 C 1170.929688 495.363281 1150.628906 478.820313 1150.308594 444.695313 C 1149.980469 410.253906 1179.878906 397.167969 1198.730469 397.167969 C 1230.570313 397.167969 1252.539063 416.449219 1252.539063 446.042969 M 1200.980469 421.382813 C 1186.179688 421.804688 1181.25 433.488281 1181.25 445.59375 C 1181.25 457.699219 1186.421875 472.023438 1201.871094 471.601563 C 1217.230469 471.175781 1220.25 458.148438 1220.699219 446.488281 C 1221.148438 434.835938 1216.671875 420.933594 1200.980469 421.382813 "/>
<path style=" stroke:none;fill-rule:evenodd;fill:rgb(100%,100%,100%);fill-opacity:1;" d="M 1269.128906 399.410156 L 1270.019531 408.378906 L 1270.921875 492.671875 L 1301.859375 492.226563 L 1301.410156 437.972656 C 1301.410156 437.972656 1301.398438 421.671875 1318 420.933594 C 1331.648438 420.328125 1329.660156 442.90625 1329.660156 442.90625 L 1330.109375 493.121094 L 1361.488281 493.121094 L 1361.039063 439.320313 C 1361.039063 439.320313 1362.390625 420.933594 1377.628906 420.933594 C 1389.738281 420.933594 1389.289063 433.488281 1389.289063 433.488281 L 1389.738281 492.898438 L 1422.019531 492.449219 L 1422.46875 431.695313 C 1422.46875 431.695313 1423.828125 398.320313 1390.191406 397.617188 C 1368.660156 397.171875 1358.351563 414.210938 1358.351563 414.210938 C 1358.351563 414.210938 1354.308594 398.515625 1331.449219 397.617188 C 1308.578125 396.722656 1301.410156 411.519531 1301.410156 411.519531 L 1297.371094 399.410156 "/>
<path style=" stroke:none;fill-rule:evenodd;fill:rgb(100%,100%,100%);fill-opacity:1;" d="M 1032.839844 513.746094 L 1077.671875 513.746094 L 1077.671875 519.128906 L 1058.839844 519.128906 L 1058.839844 570.691406 L 1052.121094 570.691406 L 1052.121094 519.574219 L 1032.839844 519.574219 "/>
<path style=" stroke:none;fill-rule:evenodd;fill:rgb(100%,100%,100%);fill-opacity:1;" d="M 1082.160156 528.542969 L 1088.878906 528.542969 L 1101.890625 563.515625 L 1102.78125 563.515625 L 1115.789063 528.542969 L 1121.609375 528.542969 L 1135.058594 564.410156 L 1135.960938 564.410156 L 1148.960938 528.09375 L 1154.789063 528.09375 L 1138.648438 570.238281 L 1131.03125 570.238281 L 1119.820313 537.960938 L 1117.578125 537.960938 L 1105.019531 571.136719 L 1100.089844 571.136719 "/>
<path style=" stroke:none;fill-rule:evenodd;fill:rgb(100%,100%,100%);fill-opacity:1;" d="M 1214.871094 528.542969 L 1221.601563 528.542969 L 1234.601563 563.515625 L 1235.5 563.515625 L 1248.5 528.542969 L 1254.328125 528.542969 L 1267.78125 564.410156 L 1268.679688 564.410156 L 1281.679688 528.09375 L 1287.511719 528.09375 L 1271.371094 570.238281 L 1263.738281 570.238281 L 1252.53125 537.960938 L 1250.289063 537.960938 L 1237.738281 571.136719 L 1232.808594 571.136719 "/>
<path style=" stroke:none;fill-rule:evenodd;fill:rgb(100%,100%,100%);fill-opacity:1;" d="M 1193.351563 552.308594 L 1193.351563 558.582031 C 1193.351563 558.582031 1186.019531 568.230469 1177.660156 567.550781 C 1169.300781 566.871094 1167.058594 562.21875 1167.351563 558.582031 C 1167.628906 554.945313 1167.660156 553.199219 1171.828125 551.859375 C 1174.691406 550.9375 1190.789063 550.859375 1193.351563 552.308594 M 1192.011719 547.371094 L 1193.351563 545.578125 C 1193.351563 545.578125 1193.921875 541.863281 1192.460938 538.40625 C 1190.898438 534.746094 1187.570313 532.230469 1181.25 532.128906 C 1173.539063 532.007813 1166.898438 537.0625 1166.898438 537.0625 L 1164.210938 533.476563 C 1164.210938 533.476563 1170.460938 527.84375 1180.800781 527.644531 C 1197.488281 527.324219 1198.730469 538.855469 1198.730469 538.855469 L 1199.179688 570.691406 L 1194.25 570.691406 L 1191.558594 566.203125 C 1191.558594 566.203125 1186.460938 571.285156 1177.660156 571.136719 C 1168.859375 570.992188 1161.308594 567.234375 1161.519531 559.03125 C 1161.730469 550.828125 1167.808594 547.371094 1173.621094 546.925781 C 1179.441406 546.484375 1192.011719 547.371094 1192.011719 547.371094 "/>
<path style=" stroke:none;fill-rule:evenodd;fill:rgb(100%,100%,100%);fill-opacity:1;" d="M 1423.140625 552.308594 L 1423.140625 558.582031 C 1423.140625 558.582031 1415.800781 568.230469 1407.449219 567.550781 C 1399.089844 566.871094 1396.851563 562.21875 1397.140625 558.582031 C 1397.421875 554.945313 1397.449219 553.199219 1401.621094 551.859375 C 1404.480469 550.9375 1420.578125 550.859375 1423.140625 552.308594 M 1421.800781 547.371094 L 1423.140625 545.578125 C 1423.140625 545.578125 1423.710938 541.863281 1422.238281 538.40625 C 1420.679688 534.746094 1417.359375 532.230469 1411.03125 532.128906 C 1403.320313 532.007813 1396.691406 537.0625 1396.691406 537.0625 L 1394 533.476563 C 1394 533.476563 1400.238281 527.84375 1410.589844 527.644531 C 1427.28125 527.324219 1428.519531 538.855469 1428.519531 538.855469 L 1428.96875 570.691406 L 1424.039063 570.691406 L 1421.351563 566.203125 C 1421.351563 566.203125 1416.25 571.285156 1407.449219 571.136719 C 1398.648438 570.992188 1391.101563 567.234375 1391.308594 559.03125 C 1391.519531 550.828125 1397.589844 547.371094 1403.410156 546.925781 C 1409.230469 546.484375 1421.800781 547.371094 1421.800781 547.371094 "/>
<path style=" stroke:none;fill-rule:evenodd;fill:rgb(100%,100%,100%);fill-opacity:1;" d="M 1309.03125 533.027344 C 1324.761719 534.050781 1324.269531 548.269531 1324.269531 548.269531 L 1293.339844 548.269531 C 1293.339844 548.269531 1293.300781 532.003906 1309.03125 533.027344 M 1293.789063 551.859375 L 1329.660156 551.859375 C 1329.660156 551.859375 1330.558594 528.207031 1309.480469 528.09375 C 1289.289063 527.988281 1287.621094 544.738281 1287.511719 550.511719 C 1287.390625 556.289063 1290.691406 570.796875 1309.929688 571.136719 C 1320.480469 571.328125 1325.171875 564.859375 1325.171875 564.859375 L 1322.929688 562.621094 C 1322.929688 562.621094 1317.53125 568.121094 1309.480469 567.550781 C 1301.429688 566.984375 1293.230469 562.777344 1293.789063 551.859375 "/>
<path style=" stroke:none;fill-rule:evenodd;fill:rgb(100%,100%,100%);fill-opacity:1;" d="M 1339.96875 528.542969 L 1374.039063 528.542969 L 1374.039063 531.683594 L 1346.691406 565.308594 L 1348.039063 567.101563 L 1374.488281 567.101563 L 1374.488281 570.6875 L 1338.621094 570.6875 L 1338.621094 567.550781 L 1367.769531 533.023438 L 1365.96875 532.128906 L 1339.96875 532.128906 "/>
<path style=" stroke:none;fill-rule:evenodd;fill:rgb(85.899353%,14.898682%,18.798828%);fill-opacity:1;" d="M 465.652344 336.640625 L 467.445313 340.226563 C 467.445313 340.226563 581.128906 282.4375 622.582031 311.980469 C 654.375 334.640625 608.683594 381.925781 608.683594 381.925781 L 612.269531 385.0625 C 612.269531 385.0625 693.621094 312.988281 664.726563 288.21875 C 622.625 252.121094 465.652344 336.640625 465.652344 336.640625 "/>
<path style=" stroke:none;fill-rule:evenodd;fill:rgb(85.899353%,14.898682%,18.798828%);fill-opacity:1;" d="M 445.027344 352.332031 L 443.234375 349.644531 C 443.234375 349.644531 271.421875 448.640625 271.511719 508.367188 C 271.554688 535.675781 309.222656 536.90625 355.355469 524.507813 C 406.332031 510.804688 461.171875 483.257813 461.171875 483.257813 L 459.824219 479.222656 C 459.824219 479.222656 366.210938 515.09375 342.800781 480.566406 C 330.277344 462.097656 352.019531 426.808594 379.566406 400.757813 C 409.460938 372.488281 445.027344 352.332031 445.027344 352.332031 "/>
</g>
</svg>
